# xmcd CD database file
#
# Track frame offsets:
#	150
#	18525
#	41991
#	69411
#	98555
#	119340
#	142572
#	155937
#	170897
#	194494
#
# Disc length: 2793 seconds
#
# Revision: 0
# Processed by: cddbd v1.5.2PL0 Copyright (c) Steve Scherf et al.
# Submitted via: CDex 1.51
#
DISCID=8d0ae70a
DTITLE=Daniel Smith - So Low Boogie
DYEAR=2006
DGENRE=Jazz
TTITLE0=Key To The Highway
TTITLE1=So Low Boogie
TTITLE2=Downhome Piano Blues
TTITLE3=Free and Easy Blues
TTITLE4=Mojo Boogie
TTITLE5=Forgotten Hero
TTITLE6=St. James Gate
TTITLE7=Goats-Eye Boogie
TTITLE8=The Way It Has To Be
TTITLE9=Back To Basics Boogie
EXTD=YEAR: 2006
EXTT0=
EXTT1=
EXTT2=
EXTT3=
EXTT4=
EXTT5=
EXTT6=
EXTT7=
EXTT8=
EXTT9=
PLAYORDER=
